<svg width="28" height="28" viewBox="0 0 28 28" fill="none" xmlns="http://www.w3.org/2000/svg">
<path d="M10.5 11.666H8.16667V13.9993H10.5V11.666ZM15.1667 11.666H12.8333V13.9993H15.1667V11.666ZM19.8333 11.666H17.5V13.9993H19.8333V11.666ZM22.1667 3.49935H21V1.16602H18.6667V3.49935H9.33333V1.16602H7V3.49935H5.83333C4.53833 3.49935 3.5 4.54935 3.5 5.83268V22.166C3.5 22.7849 3.74583 23.3783 4.18342 23.8159C4.621 24.2535 5.21449 24.4994 5.83333 24.4994H22.1667C22.7855 24.4994 23.379 24.2535 23.8166 23.8159C24.2542 23.3783 24.5 22.7849 24.5 22.166V5.83268C24.5 5.21384 24.2542 4.62035 23.8166 4.18277C23.379 3.74518 22.7855 3.49935 22.1667 3.49935ZM22.1667 22.166H5.83333V9.33268H22.1667V22.166Z" fill="#F3892B"/>
</svg>
