<svg width="242" height="35" viewBox="0 0 242 35" fill="none" xmlns="http://www.w3.org/2000/svg">
<g clip-path="url(#clip0_3125_7834)">
<mask id="mask0_3125_7834" style="mask-type:luminance" maskUnits="userSpaceOnUse" x="0" y="0" width="242" height="35">
<path d="M242 0H0V34.9007H242V0Z" fill="white"/>
</mask>
<g mask="url(#mask0_3125_7834)">
<path d="M12.3015 8.55438C7.58872 8.55438 3.88322 12.1629 3.88322 16.7808C3.88322 21.3986 7.58872 25.0429 12.3015 25.0429C14.658 25.0429 17.0864 23.971 18.8672 22.265L21.2236 24.8732C18.8311 27.2133 15.4314 28.723 12.0947 28.723C5.18734 28.723 -0.164062 23.5423 -0.164062 16.8166C-0.164062 10.0907 5.26829 5.03516 12.2386 5.03516C15.5753 5.03516 18.9031 6.41069 21.1966 8.64371L18.8761 11.5198C17.1584 9.67983 14.7029 8.54546 12.3106 8.54546L12.3015 8.55438Z" fill="#4E4E4E"/>
<path d="M41.5331 19.6215C41.5331 25.0076 37.7287 28.6876 32.2063 28.6876C26.6841 28.6876 22.8438 25.0076 22.8438 19.6215C22.8438 14.2355 26.6481 10.627 32.2063 10.627C37.7646 10.627 41.5331 14.2712 41.5331 19.6215ZM26.72 19.6841C26.72 23.1318 28.9775 25.472 32.2063 25.472C35.4352 25.472 37.6657 23.1318 37.6657 19.6841C37.6657 16.2363 35.4082 13.8961 32.2063 13.8961C29.0045 13.8961 26.72 16.272 26.72 19.6841Z" fill="#4E4E4E"/>
<path d="M75.5124 17.4779V28.5446H71.6359V18.5496C71.6359 15.8433 70.0172 14.1998 67.3909 14.1998C64.3239 14.298 62.4712 16.6382 62.4712 19.7555V28.5536H58.5948V18.5587C58.5948 15.8522 57.0119 14.2087 54.3856 14.2087C51.2916 14.307 49.4029 16.6472 49.4029 19.7644V28.5625H45.5625V10.7609H49.4029V14.2087C50.6531 11.6988 52.9376 10.627 55.9056 10.627C59.1074 10.627 61.293 12.199 62.1383 14.9054C63.2807 11.931 65.673 10.627 68.9379 10.627C73.0481 10.627 75.5033 13.2351 75.5033 17.4868L75.5124 17.4779Z" fill="#4E4E4E"/>
<path d="M98.4952 19.7198C98.4952 25.0344 95.1314 28.6786 90.005 28.6786C87.1448 28.6786 84.9864 27.5443 83.6732 25.472V35.0382H79.7969V10.7609H83.6732V13.8336C84.9864 11.7613 87.1448 10.627 89.9331 10.627C95.0146 10.627 98.4862 14.307 98.4862 19.7198H98.4952ZM94.5918 19.5858C94.5918 16.272 92.3343 13.8336 89.1325 13.8336C85.9307 13.8336 83.6732 16.2452 83.6732 19.5858C83.6732 22.9264 85.9307 25.4005 89.1325 25.4005C92.3343 25.4005 94.5918 22.9889 94.5918 19.5858Z" fill="#4E4E4E"/>
<path d="M113.27 28.5527V26.3823C111.993 27.9543 109.933 28.7224 107.343 28.7224C103.466 28.7224 101.047 26.3465 101.047 23.2024C101.047 20.0583 103.502 17.8879 107.819 17.8522H113.243V17.3162C113.243 15.0743 111.795 13.7345 108.962 13.7345C107.244 13.7345 105.463 14.3329 103.673 15.5387L102.09 12.8591C104.582 11.3853 106.398 10.6172 109.798 10.6172C114.412 10.6172 117.002 12.9574 117.038 16.8697L117.074 28.5438H113.27V28.5527ZM113.234 22.3004V20.6658H108.386C105.859 20.6658 104.68 21.3357 104.68 23.0417C104.68 24.6494 105.994 25.6856 108.152 25.6856C110.913 25.6856 113.036 24.2474 113.234 22.3093V22.3004Z" fill="#4E4E4E"/>
<path d="M129.777 14.0033C126.674 14.0033 124.452 16.3077 124.452 19.6841C124.452 23.0604 126.674 25.3737 129.777 25.3737C132.034 25.3737 133.851 24.6413 135.065 23.2301L137.224 25.3737C135.605 27.4817 133.014 28.6876 129.615 28.6876C124.29 28.6876 120.594 25.0433 120.594 19.6929C120.594 14.3427 124.299 10.627 129.615 10.627C132.844 10.627 135.371 11.6631 137.026 13.5388L134.903 16.013C133.653 14.7446 131.944 13.9765 129.786 14.0033H129.777Z" fill="#4E4E4E"/>
<path d="M151.383 27.4083C149.971 28.2478 148.487 28.7123 146.975 28.7123C144.277 28.7123 141.957 27.176 141.957 23.5316V14.3049H139.43V11.4288H141.957V6.54297H145.797V11.4288H151.086V14.3049H145.797V22.835C145.797 24.675 146.508 25.2467 147.713 25.2467C148.522 25.2467 149.359 24.9787 150.411 24.4784L151.392 27.426L151.383 27.4083Z" fill="#4E4E4E"/>
<path d="M233.347 5.40164C232.968 5.40164 232.609 5.33018 232.285 5.18727C231.952 5.04436 231.672 4.85678 231.43 4.6067C231.187 4.36552 230.999 4.0797 230.854 3.75815C230.711 3.43659 230.648 3.08824 230.648 2.72203V2.70417C230.648 2.33796 230.719 1.98961 230.854 1.66804C230.989 1.3465 231.187 1.06067 231.43 0.810576C231.672 0.569411 231.961 0.372907 232.293 0.229994C232.627 0.0870813 232.978 0.015625 233.365 0.015625C233.752 0.015625 234.102 0.0870813 234.425 0.229994C234.757 0.372907 235.037 0.56048 235.279 0.810576C235.523 1.05174 235.712 1.33757 235.856 1.65912C235.999 1.98067 236.063 2.32902 236.063 2.69523V2.71311C236.063 3.07932 235.991 3.42766 235.856 3.74921C235.712 4.07078 235.523 4.3566 235.279 4.6067C235.037 4.84786 234.749 5.04436 234.417 5.18727C234.084 5.33018 233.724 5.40164 233.347 5.40164ZM233.347 5.10688C233.687 5.10688 234.012 5.04436 234.3 4.91931C234.588 4.79426 234.848 4.62456 235.055 4.41018C235.271 4.19583 235.442 3.93679 235.559 3.65096C235.684 3.3562 235.739 3.05252 235.739 2.72203V2.70417C235.739 2.37368 235.676 2.07 235.559 1.77523C235.432 1.48941 235.271 1.23038 235.055 1.01601C234.84 0.801644 234.588 0.631936 234.3 0.506888C234.012 0.381838 233.687 0.319315 233.355 0.319315C233.022 0.319315 232.69 0.381838 232.402 0.506888C232.114 0.631936 231.853 0.801644 231.638 1.01601C231.422 1.23038 231.251 1.48941 231.134 1.77523C231.007 2.07 230.953 2.37368 230.953 2.70417V2.72203C230.953 3.05252 231.017 3.3562 231.134 3.65096C231.251 3.93679 231.422 4.19583 231.638 4.41018C231.853 4.62456 232.105 4.79426 232.402 4.91931C232.698 5.04436 233.014 5.10688 233.347 5.10688ZM232.24 1.20359H233.516C233.903 1.20359 234.201 1.31077 234.407 1.51621C234.57 1.67698 234.65 1.88242 234.65 2.14144V2.15932C234.65 2.39154 234.596 2.57912 234.479 2.72203C234.362 2.86494 234.219 2.97213 234.03 3.04359L234.731 4.07078H233.994L233.383 3.15076H232.879V4.07078H232.24V1.20359ZM233.516 2.60592C233.679 2.60592 233.796 2.57019 233.885 2.48979C233.976 2.4094 234.012 2.31116 234.012 2.19504V2.17718C234.012 2.03427 233.967 1.93601 233.877 1.86456C233.786 1.79309 233.661 1.75737 233.5 1.75737H232.879V2.59698H233.516V2.60592Z" fill="#4E4E4E"/>
<path d="M202.489 28.3271L196.678 19.9309L190.598 28.3271H181.973L192.001 14.0447L182.63 0.28044H191.211L196.795 7.77443L201.804 0.28044H210.511L201.202 13.6874L211.311 28.336H202.489V28.3271ZM182.945 14.2144C182.945 16.1884 182.584 18.0284 181.856 19.7345C181.127 21.4405 180.103 22.9231 178.771 24.1736C177.44 25.4241 175.858 26.4156 174.022 27.1301C172.188 27.8536 170.165 28.2109 167.96 28.2109H156.961V0.208984H167.96C170.165 0.208984 172.178 0.566265 174.022 1.2719C175.858 1.97752 177.449 2.96006 178.771 4.21054C180.093 5.46102 181.127 6.9348 181.856 8.6319C182.584 10.329 182.945 12.16 182.945 14.134V14.2144ZM176.46 14.2144C176.46 12.9907 176.253 11.8564 175.839 10.8113C175.426 9.77519 174.85 8.882 174.104 8.1317C173.367 7.38141 172.476 6.80975 171.422 6.38996C170.38 5.97908 169.22 5.77365 167.96 5.77365H163.167V22.6553H167.96C169.22 22.6553 170.38 22.4587 171.422 22.0567C172.466 21.6548 173.367 21.0831 174.104 20.3329C174.842 19.5825 175.416 18.7072 175.839 17.689C176.253 16.6797 176.46 15.5453 176.46 14.2859V14.2055V14.2144Z" fill="url(#paint0_linear_3125_7834)"/>
<path d="M222.459 28.3358C220.689 28.3358 218.995 28.0411 217.38 27.4519C215.763 26.841 214.267 25.9135 212.891 24.6696L215.316 21.7891C216.428 22.7492 217.554 23.4912 218.69 24.0149C219.826 24.5168 221.115 24.7679 222.556 24.7679C223.802 24.7679 224.785 24.5059 225.506 23.9823C226.248 23.4584 226.619 22.7601 226.619 21.8872V21.8217C226.619 21.4072 226.543 21.0472 226.39 20.7416C226.26 20.4142 225.996 20.1088 225.603 19.825C225.233 19.5413 224.707 19.2794 224.031 19.0394C223.376 18.7993 222.513 18.5593 221.443 18.3193C220.22 18.0356 219.127 17.7192 218.165 17.3701C217.227 16.999 216.428 16.5626 215.773 16.0607C215.139 15.5369 214.649 14.9041 214.3 14.1621C213.971 13.4202 213.808 12.5254 213.808 11.478V11.4125C213.808 10.4305 214.003 9.53577 214.397 8.72834C214.79 7.89909 215.325 7.20078 216.004 6.6334C216.702 6.04419 217.531 5.58592 218.493 5.25859C219.454 4.93125 220.503 4.76758 221.639 4.76758C223.321 4.76758 224.828 5.01853 226.161 5.52046C227.516 6.00054 228.782 6.70977 229.962 7.64814L227.799 10.6924C226.75 9.92858 225.713 9.35028 224.686 8.95749C223.659 8.54286 222.622 8.33555 221.573 8.33555C220.394 8.33555 219.476 8.59742 218.82 9.12116C218.165 9.64488 217.838 10.2887 217.838 11.0524V11.1179C217.838 11.5543 217.915 11.9471 218.068 12.2963C218.22 12.6236 218.493 12.9292 218.886 13.2129C219.301 13.4747 219.859 13.7257 220.557 13.9657C221.278 14.2058 222.185 14.4567 223.277 14.7186C224.479 15.0241 225.539 15.3624 226.456 15.7333C227.396 16.1043 228.171 16.5626 228.782 17.1081C229.394 17.6318 229.852 18.2538 230.158 18.974C230.486 19.6724 230.65 20.4906 230.65 21.4289V21.4944C230.65 22.5637 230.443 23.5239 230.027 24.3751C229.635 25.226 229.077 25.9463 228.356 26.5354C227.636 27.1246 226.772 27.5719 225.768 27.8775C224.763 28.183 223.659 28.3358 222.459 28.3358Z" fill="url(#paint1_linear_3125_7834)"/>
</g>
</g>
<defs>
<linearGradient id="paint0_linear_3125_7834" x1="145.844" y1="-4.81089" x2="227.242" y2="29.3876" gradientUnits="userSpaceOnUse">
<stop stop-color="#5CC7D1"/>
<stop offset="0.23" stop-color="#34BEB8"/>
<stop offset="0.46" stop-color="#05A4AD"/>
<stop offset="0.67" stop-color="#10A2B5"/>
<stop offset="0.82" stop-color="#199FD4"/>
<stop offset="1" stop-color="#138CCD"/>
</linearGradient>
<linearGradient id="paint1_linear_3125_7834" x1="210.322" y1="0.755977" x2="232.137" y2="3.31943" gradientUnits="userSpaceOnUse">
<stop stop-color="#05A4AD"/>
<stop offset="0.424115" stop-color="#199FD4"/>
<stop offset="1" stop-color="#138CCD"/>
</linearGradient>
<clipPath id="clip0_3125_7834">
<rect width="242" height="34.9007" fill="white"/>
</clipPath>
</defs>
</svg>
