<svg width="1280" height="832" viewBox="0 0 1280 832" fill="none" xmlns="http://www.w3.org/2000/svg">
<g clip-path="url(#clip0_453_91)">
<rect width="1280" height="832" fill="url(#paint0_linear_453_91)"/>
<path fill-rule="evenodd" clip-rule="evenodd" d="M-158.734 96.9182C-143.329 69.8704 -122.782 47.9385 -92.8108 28.32C-27.4868 -15.6518 105.144 -55.2131 182.964 -71.6191C256.012 -86.7191 383.392 -105.273 455.111 -87.3928C455.111 -87.3928 531.722 -75.7437 526.014 7.36038C525.894 12.2857 525.774 17.211 524.063 22.5716C519.433 61.348 510.391 86.6545 494.866 118.628C470.419 170.982 418.691 240.588 381.388 280.152C323.538 341.648 261.156 394.6 182.737 435.633C181.146 436.068 181.146 436.068 181.146 436.068C97.8351 483.332 12.0619 501.914 12.0619 501.914C12.0619 501.914 4.10888 504.091 -7.51566 505.642C-10.6969 506.512 -12.2875 506.948 -13.8781 507.383C-21.8312 509.56 -28.6839 509.804 -37.1272 510.484C-151.782 525.556 -239.418 490.831 -240.955 359.154C-239.974 362.147 -232.218 216.511 -158.734 96.9182Z" fill="url(#paint1_linear_453_91)"/>
<path fill-rule="evenodd" clip-rule="evenodd" d="M-158.734 96.9183C-143.329 69.8705 -122.782 47.9386 -92.8108 28.32C-27.4868 -15.6518 105.144 -55.213 182.964 -71.6191C256.012 -86.7191 383.392 -105.273 455.111 -87.3928C455.111 -87.3928 531.722 -75.7436 526.014 7.36044C525.894 12.2857 525.774 17.211 524.063 22.5717C519.433 61.3481 510.391 86.6546 494.866 118.628C470.419 170.982 418.691 240.588 381.388 280.152C323.538 341.648 261.156 394.6 182.737 435.633C181.146 436.068 181.146 436.068 181.146 436.068C97.8351 483.332 12.0619 501.914 12.0619 501.914C12.0619 501.914 4.10888 504.091 -7.51566 505.642C-10.6969 506.512 -12.2875 506.948 -13.8781 507.383C-21.8312 509.56 -28.6839 509.804 -37.1272 510.484C-151.782 525.556 -239.418 490.831 -240.955 359.154C-239.974 362.147 -232.218 216.511 -158.734 96.9183Z" fill="url(#paint2_linear_453_91)"/>
<path fill-rule="evenodd" clip-rule="evenodd" d="M852.543 523.038C872.932 496.518 896.822 477.156 928.778 462.919C998.711 430.516 1129.08 421.005 1203.99 423.129C1274.23 425.462 1394.9 438.334 1456.22 477.646C1456.22 477.646 1523.47 511.205 1498.84 603.757C1497.58 609.3 1496.32 614.843 1493.5 620.456C1480.21 663.118 1466.04 689.359 1444.39 721.423C1409.83 774.184 1346.33 839.218 1303.01 874.083C1235.81 928.31 1166.47 971.66 1085.26 997.252C1083.7 997.322 1083.7 997.322 1083.7 997.322C996.574 1028.67 913.896 1026.89 913.896 1026.89C913.896 1026.89 906.124 1027.24 895.146 1025.91C892.037 1026.05 890.482 1026.12 888.928 1026.18C881.156 1026.53 874.84 1024.99 866.97 1023.51C758.736 1010.08 686.813 947.471 716.178 798.011C716.374 801.66 757.487 638.869 852.543 523.038Z" fill="url(#paint3_linear_453_91)"/>
</g>
<rect x="0.5" y="0.5" width="1279" height="831" stroke="black"/>
<defs>
<linearGradient id="paint0_linear_453_91" x1="1280" y1="16.25" x2="73.5065" y2="899.866" gradientUnits="userSpaceOnUse">
<stop stop-color="#FFE3E3" stop-opacity="0"/>
<stop offset="1" stop-color="#F1DADA"/>
</linearGradient>
<linearGradient id="paint1_linear_453_91" x1="-156.781" y1="245.15" x2="498.935" y2="-73.9455" gradientUnits="userSpaceOnUse">
<stop offset="0.159416" stop-color="#4E02B1"/>
<stop offset="0.499417" stop-color="#F66060"/>
<stop offset="1" stop-color="#F3811F"/>
</linearGradient>
<linearGradient id="paint2_linear_453_91" x1="-156.781" y1="245.15" x2="498.935" y2="-73.9454" gradientUnits="userSpaceOnUse">
<stop offset="0.159416" stop-color="#4E02B1"/>
<stop offset="0.499417" stop-color="#F66060"/>
<stop offset="1" stop-color="#F3811F"/>
</linearGradient>
<linearGradient id="paint3_linear_453_91" x1="1094.22" y1="391.625" x2="689.572" y2="943.361" gradientUnits="userSpaceOnUse">
<stop offset="0.159416" stop-color="#4E02B1"/>
<stop offset="0.52037" stop-color="#F66060"/>
<stop offset="0.824163" stop-color="#F3811F"/>
</linearGradient>
<clipPath id="clip0_453_91">
<rect width="1280" height="832" fill="white"/>
</clipPath>
</defs>
</svg>
