<svg width="20" height="21" viewBox="0 0 20 21" fill="none" xmlns="http://www.w3.org/2000/svg">
<path d="M10.0026 8C10.6656 8 11.3015 8.26339 11.7704 8.73223C12.2392 9.20107 12.5026 9.83696 12.5026 10.5C12.5026 11.163 12.2392 11.7989 11.7704 12.2678C11.3015 12.7366 10.6656 13 10.0026 13C9.33956 13 8.70368 12.7366 8.23484 12.2678C7.766 11.7989 7.5026 11.163 7.5026 10.5C7.5026 9.83696 7.766 9.20107 8.23484 8.73223C8.70368 8.26339 9.33956 8 10.0026 8ZM10.0026 4.25C14.1693 4.25 17.7276 6.84167 19.1693 10.5C17.7276 14.1583 14.1693 16.75 10.0026 16.75C5.83594 16.75 2.2776 14.1583 0.835938 10.5C2.2776 6.84167 5.83594 4.25 10.0026 4.25ZM2.6526 10.5C4.0276 13.3 6.86927 15.0833 10.0026 15.0833C13.1359 15.0833 15.9776 13.3 17.3526 10.5C15.9776 7.7 13.1359 5.91667 10.0026 5.91667C6.86927 5.91667 4.0276 7.7 2.6526 10.5Z" fill="#F3811F"/>
</svg>
