<svg width="16" height="10" viewBox="0 0 16 10" fill="none" xmlns="http://www.w3.org/2000/svg">
<g clip-path="url(#clip0_3063_9548)">
<path d="M8.17656 9.09478C3.16656 9.09478 0.506563 5.30479 0.396562 5.13479C0.336562 5.05479 0.336562 4.93479 0.396562 4.85479C0.506563 4.69479 3.16656 0.904785 8.16656 0.904785C13.1666 0.904785 15.8266 4.69479 15.9366 4.85479C15.9966 4.93479 15.9966 5.05479 15.9366 5.13479C15.8266 5.29479 13.1666 9.08479 8.16656 9.08479L8.17656 9.09478ZM0.916562 4.99479C1.44656 5.67479 3.96656 8.58478 8.17656 8.58478C12.3866 8.58478 14.8966 5.67479 15.4366 4.99479C14.9066 4.31479 12.3866 1.40479 8.17656 1.40479C3.96656 1.40479 1.45656 4.31479 0.916562 4.99479Z" fill="#ACA5BB"/>
<path d="M8.17594 9.09478C5.91594 9.09478 4.08594 7.25479 4.08594 5.00479C4.08594 2.75479 5.91594 0.904785 8.17594 0.904785C10.4359 0.904785 12.2659 2.74479 12.2659 4.99479C12.2659 7.24479 10.4259 9.08479 8.17594 9.08479V9.09478ZM8.17594 1.40479C6.19594 1.40479 4.58594 3.01479 4.58594 4.99479C4.58594 6.97479 6.19594 8.58478 8.17594 8.58478C10.1559 8.58478 11.7659 6.97479 11.7659 4.99479C11.7659 3.01479 10.1559 1.40479 8.17594 1.40479Z" fill="#ACA5BB"/>
<path d="M8.17844 6.52484C9.02343 6.52484 9.70844 5.83984 9.70844 4.99484C9.70844 4.14985 9.02343 3.46484 8.17844 3.46484C7.33344 3.46484 6.64844 4.14985 6.64844 4.99484C6.64844 5.83984 7.33344 6.52484 8.17844 6.52484Z" fill="#ACA5BB"/>
</g>
<defs>
<clipPath id="clip0_3063_9548">
<rect width="15.64" height="8.19" fill="white" transform="translate(0.359375 0.904785)"/>
</clipPath>
</defs>
</svg>
