<svg width="25" height="24" viewBox="0 0 25 24" fill="none" xmlns="http://www.w3.org/2000/svg">
<path d="M13.2844 7.29C13.4844 7.11 13.7244 7 13.9844 7C14.2544 7 14.4844 7.11 14.6944 7.29C14.8844 7.5 14.9844 7.74 14.9844 8C14.9844 8.27 14.8844 8.5 14.6944 8.71C14.4844 8.9 14.2544 9 13.9844 9C13.7244 9 13.4844 8.9 13.2844 8.71C13.0944 8.5 12.9844 8.27 12.9844 8C12.9844 7.74 13.0944 7.5 13.2844 7.29ZM10.7844 11.97C10.7844 11.97 12.9544 10.25 13.7444 10.18C14.4844 10.12 14.3344 10.97 14.2644 11.41L14.2544 11.47C14.1144 12 13.9444 12.64 13.7744 13.25C13.3944 14.64 13.0244 16 13.1144 16.25C13.2144 16.59 13.8344 16.16 14.2844 15.86C14.3444 15.82 14.3944 15.78 14.4444 15.75C14.4444 15.75 14.5244 15.67 14.6044 15.78C14.6244 15.81 14.6444 15.84 14.6644 15.86C14.7544 16 14.8044 16.05 14.6844 16.13L14.6444 16.15C14.4244 16.3 13.4844 16.96 13.1044 17.2C12.6944 17.47 11.1244 18.37 11.3644 16.62C11.5744 15.39 11.8544 14.33 12.0744 13.5C12.4844 12 12.6644 11.32 11.7444 11.91C11.3744 12.13 11.1544 12.27 11.0244 12.36C10.9144 12.44 10.9044 12.44 10.8344 12.31L10.8044 12.25L10.7544 12.17C10.6844 12.07 10.6844 12.06 10.7844 11.97ZM22.9844 12C22.9844 17.5 18.4844 22 12.9844 22C7.48438 22 2.98438 17.5 2.98438 12C2.98438 6.5 7.48438 2 12.9844 2C18.4844 2 22.9844 6.5 22.9844 12ZM20.9844 12C20.9844 7.58 17.4044 4 12.9844 4C8.56437 4 4.98438 7.58 4.98438 12C4.98438 16.42 8.56437 20 12.9844 20C17.4044 20 20.9844 16.42 20.9844 12Z" fill="#565656"/>
</svg>
