<svg width="28" height="28" viewBox="0 0 28 28" fill="none" xmlns="http://www.w3.org/2000/svg">
<path d="M15.1693 22.166C15.1693 22.5627 15.2159 22.9477 15.2743 23.3327H4.66927C3.38594 23.3327 2.33594 22.2943 2.33594 20.9993V6.99935C2.33594 5.70435 3.38594 4.66602 4.66927 4.66602H5.83594L8.16927 9.33268H11.6693L9.33594 4.66602H11.6693L14.0026 9.33268H17.5026L15.1693 4.66602H17.5026L19.8359 9.33268H23.3359L21.0026 4.66602H25.6693V16.111C24.9576 15.7027 24.1759 15.4227 23.3359 15.271V11.666H6.7226L4.66927 7.54768V20.9993H15.2743C15.2159 21.3843 15.1693 21.7693 15.1693 22.166ZM26.8359 20.871L23.4643 20.5793L22.1693 17.4993L20.8509 20.5793L17.5026 20.871L20.0459 23.0643L19.2526 26.3427L22.1693 24.6043L25.0276 26.3427L24.2693 23.0643L26.8359 20.871Z" fill="#565656"/>
</svg>
