<svg width="16" height="12" viewBox="0 0 16 12" fill="none" xmlns="http://www.w3.org/2000/svg">
<g clip-path="url(#clip0_3063_9541)">
<path d="M14.2994 11.5799H2.04938C1.11938 11.5799 0.359375 10.8199 0.359375 9.87992V2.11992C0.359375 1.17992 1.11938 0.419922 2.04938 0.419922H14.2994C15.2294 0.419922 15.9894 1.17992 15.9894 2.11992V9.88992C15.9894 10.8199 15.2294 11.5899 14.2894 11.5899L14.2994 11.5799ZM2.04938 0.919922C1.38937 0.919922 0.859375 1.45992 0.859375 2.11992V9.88992C0.859375 10.5499 1.39938 11.0899 2.04938 11.0899H14.2994C14.9594 11.0899 15.4994 10.5499 15.4994 9.88992V2.11992C15.4994 1.45992 14.9594 0.919922 14.3094 0.919922H2.04938Z" fill="#ACA5BB"/>
<path d="M8.16261 7.31984C8.16261 7.31984 8.08261 7.31984 8.05261 7.28984L0.502612 3.49984C0.382612 3.43984 0.332612 3.28984 0.392612 3.15984C0.452612 3.03984 0.602612 2.98984 0.732612 3.04984L8.17261 6.78984L15.6426 3.04984C15.7626 2.98984 15.9126 3.03984 15.9826 3.15984C16.0426 3.27984 15.9926 3.42984 15.8726 3.48984L8.29261 7.27984C8.29261 7.27984 8.22261 7.30984 8.18261 7.30984L8.16261 7.31984Z" fill="#ACA5BB"/>
<path d="M0.612612 9.6499C0.522611 9.6499 0.432612 9.5999 0.392612 9.5099C0.332612 9.3899 0.382612 9.2399 0.502612 9.1799L6.63261 6.1099C6.75261 6.0499 6.90261 6.0999 6.97261 6.2199C7.04261 6.3399 6.98261 6.4899 6.86261 6.5499L0.722612 9.6199C0.722612 9.6199 0.652611 9.6499 0.612612 9.6499Z" fill="#ACA5BB"/>
<path d="M15.746 9.65013C15.746 9.65013 15.666 9.65013 15.636 9.62013L9.52605 6.55013C9.40605 6.49013 9.35605 6.34013 9.41605 6.21013C9.47605 6.09013 9.62605 6.04013 9.75605 6.10013L15.866 9.17013C15.986 9.23013 16.036 9.38013 15.976 9.51013C15.936 9.60013 15.846 9.65013 15.756 9.65013H15.746Z" fill="#ACA5BB"/>
</g>
<defs>
<clipPath id="clip0_3063_9541">
<rect width="15.64" height="11.16" fill="white" transform="translate(0.359375 0.419922)"/>
</clipPath>
</defs>
</svg>
