<svg width="23" height="15" viewBox="0 0 23 15" fill="none" xmlns="http://www.w3.org/2000/svg">
<path d="M11.9844 4.5C12.78 4.5 13.5431 4.81607 14.1057 5.37868C14.6683 5.94129 14.9844 6.70435 14.9844 7.5C14.9844 8.29565 14.6683 9.05871 14.1057 9.62132C13.5431 10.1839 12.78 10.5 11.9844 10.5C11.1887 10.5 10.4257 10.1839 9.86305 9.62132C9.30045 9.05871 8.98438 8.29565 8.98438 7.5C8.98438 6.70435 9.30045 5.94129 9.86305 5.37868C10.4257 4.81607 11.1887 4.5 11.9844 4.5ZM11.9844 0C16.9844 0 21.2544 3.11 22.9844 7.5C21.2544 11.89 16.9844 15 11.9844 15C6.98438 15 2.71438 11.89 0.984375 7.5C2.71438 3.11 6.98438 0 11.9844 0ZM3.16438 7.5C4.81437 10.86 8.22437 13 11.9844 13C15.7444 13 19.1544 10.86 20.8044 7.5C19.1544 4.14 15.7444 2 11.9844 2C8.22437 2 4.81437 4.14 3.16438 7.5Z" fill="#565656"/>
</svg>
